<?xml version="1.0" encoding="utf-8"?>
<!-- Generator: Adobe Illustrator 23.1.0, SVG Export Plug-In . SVG Version: 6.00 Build 0)  -->
<svg version="1.1" id="Layer_1" xmlns="http://www.w3.org/2000/svg" xmlns:xlink="http://www.w3.org/1999/xlink" x="0px" y="0px"
	 viewBox="0 0 158.3 135.3" style="enable-background:new 0 0 158.3 135.3;" xml:space="preserve">
<style type="text/css">
	.st0{fill:#09D3AC;}
</style>
<path class="st0" d="M133,61.7c0-6.9-8.1-13-20.6-16.7c3-12.7,1.7-22.7-4.3-26.2c-1.5-0.8-3.1-1.2-4.8-1.2
	c-5.6,0-12.6,3.9-19.7,10.6c-7.1-6.7-14.1-10.5-19.7-10.5c-1.7,0-3.4,0.4-4.9,1.2c-5.9,3.4-7.2,13.4-4.2,26
	c-12.4,3.7-20.5,9.8-20.5,16.6s8.1,13,20.6,16.7c-3,12.7-1.7,22.8,4.3,26.2c1.5,0.8,3.1,1.2,4.8,1.2c5.6,0,12.6-3.9,19.7-10.6
	c7.1,6.7,14.1,10.6,19.7,10.6c1.7,0,3.4-0.4,4.9-1.2c5.9-3.4,7.2-13.4,4.2-26C124.9,74.6,133,68.6,133,61.7z M88.2,30.5
	c8.2-7.3,13.3-8.1,15.1-8.1l0,0c0.8,0,1.7,0.2,2.4,0.6c2.9,1.6,4,7.4,3.1,15c-0.2,1.9-0.6,3.9-1,5.8c-4.1-1-8.3-1.7-12.6-2.1
	c-2.5-3.5-5.3-6.9-8.2-10.1C87.4,31.2,87.8,30.9,88.2,30.5z M63.4,67.4c0.8,1.5,1.6,3,2.5,4.5s1.8,3,2.8,4.5
	c-2.7-0.4-5.3-0.9-7.8-1.5C61.5,72.4,62.4,69.9,63.4,67.4z M60.6,48.3c2.5-0.6,5.2-1.1,7.9-1.5c-1,1.5-1.9,3-2.8,4.6s-1.7,3-2.5,4.5
	C62.3,53.4,61.4,50.8,60.6,48.3z M65.9,61.7c1.2-2.6,2.6-5.2,4.1-7.9c1.5-2.6,3.1-5.2,4.8-7.6c2.9-0.2,5.9-0.3,9-0.3s6,0.1,8.9,0.3
	c1.7,2.4,3.3,5,4.8,7.6s2.9,5.2,4.1,7.8c-1.2,2.6-2.6,5.3-4.1,7.8s-3.1,5.2-4.8,7.6c-2.9,0.2-5.9,0.3-9,0.3s-6-0.1-8.9-0.4
	c-1.7-2.4-3.3-4.9-4.8-7.6S67.1,64.3,65.9,61.7L65.9,61.7z M98.7,46.9c2.7,0.4,5.3,0.9,7.8,1.5c-0.7,2.5-1.6,5-2.6,7.6
	c-0.8-1.5-1.6-3-2.5-4.5S99.6,48.4,98.7,46.9L98.7,46.9z M101.5,71.8c0.9-1.5,1.7-3,2.5-4.5c1,2.6,2,5.2,2.7,7.7
	c-2.5,0.6-5.2,1.1-7.9,1.4C99.7,74.9,100.6,73.4,101.5,71.8L101.5,71.8z M83.6,35c1.8,1.9,3.6,4,5.3,6.2c-1.7-0.1-3.5-0.1-5.2-0.1
	s-3.6,0-5.3,0.1C80.1,39,81.8,36.9,83.6,35z M61.5,23c0.8-0.4,1.6-0.6,2.5-0.6c1.8,0.1,3.6,0.5,5.2,1.3c3.7,1.7,7,4,10,6.8l1.2,1.1
	c-2.9,3.2-5.7,6.5-8.2,10c-4.3,0.4-8.5,1.1-12.6,2.1c-0.4-1.9-0.8-3.8-1-5.7C57.4,30.4,58.6,24.7,61.5,23L61.5,23z M56.2,73.7
	c-1.9-0.6-3.7-1.2-5.5-2c-7.1-3-11.5-6.8-11.5-10.1s4.4-7.1,11.5-10.1c1.8-0.7,3.6-1.4,5.4-1.9c1.3,4.1,2.8,8.2,4.6,12.1
	C58.9,65.6,57.4,69.6,56.2,73.7z M79.2,92.8c-8.2,7.3-13.3,8.1-15.1,8.1c-0.8,0-1.7-0.2-2.4-0.6c-2.9-1.6-4-7.4-3.1-15
	c0.2-1.9,0.6-3.9,1-5.8c4.1,1,8.3,1.6,12.6,2.1c2.5,3.5,5.3,6.9,8.2,10.1L79.2,92.8z M83.7,88.3c-1.8-1.9-3.6-4-5.3-6.2
	c1.7,0.1,3.5,0.1,5.2,0.1s3.6,0,5.3-0.1C87.3,84.3,85.5,86.4,83.7,88.3L83.7,88.3z M105.9,100.3c-0.8,0.4-1.6,0.6-2.5,0.6
	c-1.8,0-7-0.8-15.2-8.1l-1.2-1.1c2.9-3.2,5.7-6.5,8.2-10c4.3-0.4,8.5-1.1,12.7-2.1c0.4,1.9,0.8,3.8,1,5.7
	C109.9,92.9,108.8,98.6,105.9,100.3L105.9,100.3z M116.7,71.9c-1.7,0.7-3.5,1.3-5.4,1.9c-1.3-4.1-2.8-8.2-4.6-12.1
	c1.8-3.9,3.3-7.9,4.5-12c1.9,0.6,3.7,1.2,5.5,2c7.1,3,11.5,6.8,11.5,10.1S123.8,68.9,116.7,71.9L116.7,71.9z M83.6,70.8
	c5.1,0,9.2-4.1,9.2-9.2c0-5.1-4.1-9.2-9.2-9.2c-5.1,0-9.2,4.1-9.2,9.2C74.5,66.7,78.6,70.8,83.6,70.8C83.6,70.8,83.6,70.8,83.6,70.8
	z M22.6,6.3V117h122.1V6.3H22.6z M139.9,112.2H27.4V11.1h112.5V112.2z M54.9,78.3c-3,12.7-1.7,22.8,4.3,26.2
	c1.5,0.8,3.1,1.2,4.8,1.2c5.6,0,12.6-3.9,19.7-10.6c7.1,6.7,14.1,10.6,19.7,10.6c1.7,0,3.4-0.4,4.9-1.2c5.9-3.4,7.2-13.4,4.2-26
	c12.4-3.7,20.5-9.8,20.5-16.6s-8.1-13-20.6-16.7c3-12.7,1.7-22.7-4.3-26.2c-1.5-0.8-3.1-1.2-4.8-1.2c-5.6,0-12.6,3.9-19.7,10.6
	c-7.1-6.7-14.1-10.5-19.7-10.5c-1.7,0-3.4,0.4-4.9,1.2c-5.9,3.4-7.2,13.4-4.2,26c-12.4,3.7-20.5,9.8-20.5,16.6S42.5,74.6,54.9,78.3
	L54.9,78.3z M79.2,92.8c-8.2,7.3-13.3,8.1-15.1,8.1c-0.8,0-1.7-0.2-2.4-0.6c-2.9-1.6-4-7.4-3.1-15c0.2-1.9,0.6-3.9,1-5.8
	c4.1,1,8.3,1.6,12.6,2.1c2.5,3.5,5.3,6.9,8.2,10.1L79.2,92.8z M103.9,55.9c-0.8-1.5-1.6-3-2.5-4.5s-1.8-3-2.7-4.5
	c2.7,0.4,5.3,0.9,7.8,1.5C105.9,50.8,105,53.4,103.9,55.9L103.9,55.9z M106.7,74.9c-2.5,0.6-5.2,1.1-7.9,1.4c0.9-1.5,1.9-3,2.8-4.6
	c0.9-1.6,1.7-3.1,2.5-4.5C105,69.9,105.9,72.4,106.7,74.9L106.7,74.9z M101.5,61.6c-1.2,2.6-2.6,5.3-4.1,7.8s-3.1,5.2-4.8,7.6
	c-2.9,0.2-5.9,0.3-9,0.3s-6-0.1-8.9-0.4c-1.7-2.4-3.3-4.9-4.8-7.6s-2.9-5.2-4.1-7.8c1.2-2.6,2.6-5.2,4.1-7.9
	c1.5-2.6,3.1-5.2,4.8-7.6c2.9-0.2,5.9-0.3,9-0.3s6,0.1,8.9,0.3c1.7,2.4,3.3,5,4.8,7.6S100.2,59,101.5,61.6L101.5,61.6z M68.6,76.4
	c-2.7-0.4-5.3-0.9-7.8-1.5c0.7-2.5,1.6-5,2.7-7.6c0.8,1.5,1.6,3,2.5,4.5S67.6,74.9,68.6,76.4z M65.9,51.4c-0.9,1.5-1.7,3-2.5,4.5
	c-1-2.6-2-5.1-2.8-7.6c2.5-0.6,5.2-1.1,7.9-1.5C67.6,48.4,66.8,49.9,65.9,51.4z M83.7,88.3c-1.8-1.9-3.6-4-5.3-6.2
	c1.7,0.1,3.5,0.1,5.2,0.1s3.6,0,5.3-0.1C87.3,84.3,85.5,86.4,83.7,88.3z M105.9,100.3c-0.8,0.4-1.6,0.6-2.5,0.6
	c-1.8,0-7-0.8-15.2-8.1l-1.2-1.1c2.9-3.2,5.7-6.5,8.2-10c4.3-0.4,8.5-1.1,12.7-2.1c0.4,1.9,0.8,3.8,1,5.7
	C109.9,92.9,108.8,98.6,105.9,100.3L105.9,100.3z M111.2,49.6c1.9,0.6,3.7,1.2,5.5,2c7.1,3,11.5,6.9,11.5,10.1s-4.4,7.2-11.5,10.1
	c-1.7,0.7-3.5,1.3-5.4,1.9c-1.3-4.1-2.8-8.2-4.6-12.1C108.5,57.8,110,53.7,111.2,49.6L111.2,49.6z M88.2,30.5
	c8.2-7.3,13.3-8.1,15.1-8.1l0,0c0.8,0,1.7,0.2,2.4,0.6c2.9,1.6,4,7.4,3.1,15c-0.2,1.9-0.6,3.9-1,5.8c-4.1-1-8.3-1.7-12.6-2.1
	c-2.5-3.5-5.3-6.9-8.2-10.1C87.4,31.2,87.8,30.9,88.2,30.5L88.2,30.5z M83.6,35c1.8,1.9,3.6,4,5.3,6.2c-1.7-0.1-3.5-0.1-5.2-0.1
	s-3.6,0-5.3,0.1C80.1,39,81.8,36.9,83.6,35z M61.5,23c0.8-0.4,1.6-0.6,2.5-0.6c1.8,0.1,3.6,0.5,5.2,1.3c3.7,1.7,7,4,10,6.8l1.2,1.1
	c-2.9,3.2-5.7,6.5-8.2,10c-4.3,0.4-8.5,1.1-12.6,2.1c-0.4-1.9-0.8-3.8-1-5.7C57.4,30.4,58.6,24.7,61.5,23L61.5,23z M50.6,51.5
	c1.8-0.7,3.6-1.4,5.4-1.9c1.3,4.1,2.8,8.2,4.6,12.1c-1.8,3.9-3.3,7.9-4.5,12c-1.9-0.6-3.7-1.2-5.5-2c-7.1-3-11.5-6.8-11.5-10.1
	S43.6,54.4,50.6,51.5z M83.6,52.5c-5.1,0-9.2,4.1-9.2,9.2c0,5.1,4.1,9.2,9.2,9.2c5.1,0,9.2-4.1,9.2-9.2
	C92.8,56.6,88.8,52.5,83.6,52.5C83.7,52.4,83.7,52.4,83.6,52.5L83.6,52.5z M83.6,52.5c-5.1,0-9.2,4.1-9.2,9.2c0,5.1,4.1,9.2,9.2,9.2
	c5.1,0,9.2-4.1,9.2-9.2C92.8,56.6,88.8,52.5,83.6,52.5C83.7,52.4,83.7,52.4,83.6,52.5L83.6,52.5z M83.6,52.5c-5.1,0-9.2,4.1-9.2,9.2
	c0,5.1,4.1,9.2,9.2,9.2c5.1,0,9.2-4.1,9.2-9.2C92.8,56.6,88.8,52.5,83.6,52.5C83.7,52.4,83.7,52.4,83.6,52.5L83.6,52.5z M133,61.7
	c0-6.9-8.1-13-20.6-16.7c3-12.7,1.7-22.7-4.3-26.2c-1.5-0.8-3.1-1.2-4.8-1.2c-5.6,0-12.6,3.9-19.7,10.6
	c-7.1-6.7-14.1-10.5-19.7-10.5c-1.7,0-3.4,0.4-4.9,1.2c-5.9,3.4-7.2,13.4-4.2,26c-12.4,3.7-20.5,9.8-20.5,16.6s8.1,13,20.6,16.7
	c-3,12.7-1.7,22.8,4.3,26.2c1.5,0.8,3.1,1.2,4.8,1.2c5.6,0,12.6-3.9,19.7-10.6c7.1,6.7,14.1,10.6,19.7,10.6c1.7,0,3.4-0.4,4.9-1.2
	c5.9-3.4,7.2-13.4,4.2-26C124.9,74.6,133,68.6,133,61.7L133,61.7z M88.2,30.5c8.2-7.3,13.3-8.1,15.1-8.1l0,0c0.8,0,1.7,0.2,2.4,0.6
	c2.9,1.6,4,7.4,3.1,15c-0.2,1.9-0.6,3.9-1,5.8c-4.1-1-8.3-1.7-12.6-2.1c-2.5-3.5-5.3-6.9-8.2-10.1C87.4,31.2,87.8,30.9,88.2,30.5z
	 M63.4,67.4c0.8,1.5,1.6,3,2.5,4.5s1.8,3,2.8,4.5c-2.7-0.4-5.3-0.9-7.8-1.5C61.5,72.4,62.4,69.9,63.4,67.4z M60.6,48.3
	c2.5-0.6,5.2-1.1,7.9-1.5c-1,1.5-1.9,3-2.8,4.6s-1.7,3-2.5,4.5C62.3,53.4,61.4,50.8,60.6,48.3z M65.9,61.7c1.2-2.6,2.6-5.2,4.1-7.9
	c1.5-2.6,3.1-5.2,4.8-7.6c2.9-0.2,5.9-0.3,9-0.3s6,0.1,8.9,0.3c1.7,2.4,3.3,5,4.8,7.6s2.9,5.2,4.1,7.8c-1.2,2.6-2.6,5.3-4.1,7.8
	s-3.1,5.2-4.8,7.6c-2.9,0.2-5.9,0.3-9,0.3s-6-0.1-8.9-0.4c-1.7-2.4-3.3-4.9-4.8-7.6S67.1,64.3,65.9,61.7L65.9,61.7z M98.7,46.9
	c2.7,0.4,5.3,0.9,7.8,1.5c-0.7,2.5-1.6,5-2.6,7.6c-0.8-1.5-1.6-3-2.5-4.5S99.6,48.4,98.7,46.9L98.7,46.9z M101.5,71.8
	c0.9-1.5,1.7-3,2.5-4.5c1,2.6,2,5.2,2.7,7.7c-2.5,0.6-5.2,1.1-7.9,1.4C99.7,74.9,100.6,73.4,101.5,71.8L101.5,71.8z M83.6,35
	c1.8,1.9,3.6,4,5.3,6.2c-1.7-0.1-3.5-0.1-5.2-0.1s-3.6,0-5.3,0.1C80.1,39,81.8,36.9,83.6,35z M61.5,23c0.8-0.4,1.6-0.6,2.5-0.6
	c1.8,0.1,3.6,0.5,5.2,1.3c3.7,1.7,7,4,10,6.8l1.2,1.1c-2.9,3.2-5.7,6.5-8.2,10c-4.3,0.4-8.5,1.1-12.6,2.1c-0.4-1.9-0.8-3.8-1-5.7
	C57.4,30.4,58.6,24.7,61.5,23L61.5,23z M56.2,73.7c-1.9-0.6-3.7-1.2-5.5-2c-7.1-3-11.5-6.8-11.5-10.1s4.4-7.1,11.5-10.1
	c1.8-0.7,3.6-1.4,5.4-1.9c1.3,4.1,2.8,8.2,4.6,12.1C58.9,65.6,57.4,69.6,56.2,73.7z M79.2,92.8c-8.2,7.3-13.3,8.1-15.1,8.1
	c-0.8,0-1.7-0.2-2.4-0.6c-2.9-1.6-4-7.4-3.1-15c0.2-1.9,0.6-3.9,1-5.8c4.1,1,8.3,1.6,12.6,2.1c2.5,3.5,5.3,6.9,8.2,10.1L79.2,92.8z
	 M83.7,88.3c-1.8-1.9-3.6-4-5.3-6.2c1.7,0.1,3.5,0.1,5.2,0.1s3.6,0,5.3-0.1C87.3,84.3,85.5,86.4,83.7,88.3L83.7,88.3z M105.9,100.3
	c-0.8,0.4-1.6,0.6-2.5,0.6c-1.8,0-7-0.8-15.2-8.1l-1.2-1.1c2.9-3.2,5.7-6.5,8.2-10c4.3-0.4,8.5-1.1,12.7-2.1c0.4,1.9,0.8,3.8,1,5.7
	C109.9,92.9,108.8,98.6,105.9,100.3L105.9,100.3z M116.7,71.9c-1.7,0.7-3.5,1.3-5.4,1.9c-1.3-4.1-2.8-8.2-4.6-12.1
	c1.8-3.9,3.3-7.9,4.5-12c1.9,0.6,3.7,1.2,5.5,2c7.1,3,11.5,6.8,11.5,10.1S123.8,68.9,116.7,71.9L116.7,71.9z M83.6,70.8
	c5.1,0,9.2-4.1,9.2-9.2c0-5.1-4.1-9.2-9.2-9.2c-5.1,0-9.2,4.1-9.2,9.2C74.5,66.7,78.6,70.8,83.6,70.8C83.6,70.8,83.6,70.8,83.6,70.8
	z M14.3,125.3V14.6l-4.8,4.8v110.7h122.1l4.8-4.8H14.3z"/>
<image style="overflow:visible;" width="2947" height="2518" xlink:href="../../../Illustration experiments/Logo-09.jpg"  transform="matrix(5.372781e-02 0 0 5.372781e-02 0 0)">
</image>
</svg>
